# Blender v3.0.0 OBJ File: ''
# www.blender.org
mtllib shotgun.mtl
o Cylinder
v 0.000001 0.845752 3.520635
v -0.000001 0.845752 -3.520635
v -0.730286 0.500000 -3.520635
v -0.730284 0.500000 3.520635
v -0.730286 -0.500000 -3.520634
v -0.730284 -0.500000 3.520635
v -0.000001 -1.000000 -3.520635
v 0.000001 -1.000000 3.520635
v 0.730284 -0.500000 -3.520635
v 0.730286 -0.500000 3.520635
v 0.730284 0.500000 -3.520635
v 0.730286 0.500000 3.520634
vt 1.000000 0.500000
vt 1.000000 1.000000
vt 0.833333 1.000000
vt 0.833333 0.500000
vt 0.666667 1.000000
vt 0.666667 0.500000
vt 0.500000 1.000000
vt 0.500000 0.500000
vt 0.333333 1.000000
vt 0.333333 0.500000
vt 0.457846 0.370000
vt 0.250000 0.490000
vt 0.042154 0.370000
vt 0.042154 0.130000
vt 0.250000 0.010000
vt 0.457846 0.130000
vt 0.166667 1.000000
vt 0.166667 0.500000
vt -0.000000 1.000000
vt -0.000000 0.500000
vt 0.750000 0.490000
vt 0.957846 0.370000
vt 0.957846 0.130000
vt 0.750000 0.010000
vt 0.542154 0.130000
vt 0.542154 0.370000
vn -0.4279 0.9038 0.0000
vn -1.0000 0.0000 0.0000
vn -0.5649 -0.8251 0.0000
vn 0.5649 -0.8251 -0.0000
vn -0.0000 0.0000 -1.0000
vn 1.0000 0.0000 -0.0000
vn 0.4279 0.9038 -0.0000
vn 0.0000 0.0000 1.0000
usemtl ShotgunGrey
s 1
f 1/1/1 2/2/1 3/3/1 4/4/1
f 4/4/2 3/3/2 5/5/2 6/6/2
f 6/6/3 5/5/3 7/7/3 8/8/3
f 8/8/4 7/7/4 9/9/4 10/10/4
f 3/11/5 2/12/5 11/13/5 9/14/5 7/15/5 5/16/5
f 10/10/6 9/9/6 11/17/6 12/18/6
f 12/18/7 11/17/7 2/19/7 1/20/7
f 1/21/8 4/22/8 6/23/8 8/24/8 10/25/8 12/26/8
o Cylinder.001
v -0.000002 0.145443 -6.894369
v -0.000003 0.118320 -10.281514
v -0.730288 -0.381680 -10.281514
v -0.730287 -0.354557 -6.894369
v -0.730288 -2.453432 -10.281513
v -0.730287 -1.476716 -6.894370
v -0.000003 -2.953432 -10.281514
v -0.000002 -1.976716 -6.894370
v 0.730283 -2.453432 -10.281514
v 0.730283 -1.476716 -6.894370
v 0.730283 -0.381680 -10.281514
v 0.730283 -0.354557 -6.894369
v -0.000001 0.851877 -3.507224
v -0.730286 0.500000 -3.507224
v -0.730286 -0.500000 -3.507224
v -0.000001 -1.000000 -3.507224
v 0.730284 -0.500000 -3.507224
v 0.730284 0.500000 -3.507225
vt 1.000000 0.750000
vt 1.000000 1.000000
vt 0.833333 1.000000
vt 0.833333 0.750000
vt 0.666667 1.000000
vt 0.666667 0.750000
vt 0.500000 1.000000
vt 0.500000 0.750000
vt 0.333333 1.000000
vt 0.333333 0.750000
vt 0.457846 0.370000
vt 0.250000 0.490000
vt 0.042154 0.370000
vt 0.042154 0.130000
vt 0.250000 0.010000
vt 0.457846 0.130000
vt 0.166667 1.000000
vt 0.166667 0.750000
vt -0.000000 1.000000
vt -0.000000 0.750000
vt 0.750000 0.490000
vt 0.957846 0.370000
vt 0.957846 0.130000
vt 0.750000 0.010000
vt 0.542154 0.130000
vt 0.542154 0.370000
vt 0.166667 0.500000
vt -0.000000 0.500000
vt 0.333333 0.500000
vt 0.500000 0.500000
vt 0.666667 0.500000
vt 0.833333 0.500000
vt 1.000000 0.500000
vn -0.5649 0.8251 -0.0066
vn -1.0000 0.0000 0.0000
vn -0.5496 -0.8027 0.2315
vn 0.5496 -0.8027 0.2315
vn -0.0000 -0.0000 -1.0000
vn 1.0000 0.0000 -0.0000
vn 0.5649 0.8251 -0.0066
vn 0.0000 0.0000 1.0000
vn 0.4941 0.8472 -0.1952
vn -0.4941 0.8472 -0.1952
usemtl ShotgunGrey
s 1
f 13/27/9 14/28/9 15/29/9 16/30/9
f 16/30/10 15/29/10 17/31/10 18/32/10
f 18/32/11 17/31/11 19/33/11 20/34/11
f 20/34/12 19/33/12 21/35/12 22/36/12
f 15/37/13 14/38/13 23/39/13 21/40/13 19/41/13 17/42/13
f 22/36/14 21/35/14 23/43/14 24/44/14
f 24/44/15 23/43/15 14/45/15 13/46/15
f 25/47/16 26/48/16 27/49/16 28/50/16 29/51/16 30/52/16
f 30/53/17 24/44/17 13/46/17 25/54/17
f 29/55/14 22/36/14 24/44/14 30/53/14
f 28/56/12 20/34/12 22/36/12 29/55/12
f 27/57/11 18/32/11 20/34/11 28/56/11
f 26/58/10 16/30/10 18/32/10 27/57/10
f 25/59/18 13/27/18 16/30/18 26/58/18
o Cylinder.002
v -0.149996 0.756219 13.488384
v -0.149999 0.756219 3.464073
v -0.299999 0.496411 3.464073
v -0.299996 0.496412 13.488384
v -0.149999 0.236604 3.464073
v -0.149996 0.236604 13.488384
v 0.150001 0.236604 3.464073
v 0.150004 0.236604 13.488384
v 0.300001 0.496411 3.464073
v 0.300004 0.496412 13.488384
v 0.150001 0.756219 3.464073
v 0.150004 0.756219 13.488384
vt 1.000000 0.500000
vt 1.000000 1.000000
vt 0.833333 1.000000
vt 0.833333 0.500000
vt 0.666667 1.000000
vt 0.666667 0.500000
vt 0.500000 1.000000
vt 0.500000 0.500000
vt 0.333333 1.000000
vt 0.333333 0.500000
vt 0.457846 0.370000
vt 0.250000 0.490000
vt 0.042154 0.370000
vt 0.042154 0.130000
vt 0.250000 0.010000
vt 0.457846 0.130000
vt 0.166667 1.000000
vt 0.166667 0.500000
vt -0.000000 1.000000
vt -0.000000 0.500000
vt 0.750000 0.490000
vt 0.957846 0.370000
vt 0.957846 0.130000
vt 0.750000 0.010000
vt 0.542154 0.130000
vt 0.542154 0.370000
vn -0.8660 0.5000 0.0000
vn -0.8660 -0.5000 0.0000
vn 0.0000 -1.0000 -0.0000
vn 0.8660 -0.5000 -0.0000
vn 0.0000 0.0000 -1.0000
vn 0.8660 0.5000 -0.0000
vn 0.0000 1.0000 0.0000
vn 0.0000 0.0000 1.0000
usemtl ShotgunGrey
s 1
f 31/60/19 32/61/19 33/62/19 34/63/19
f 34/63/20 33/62/20 35/64/20 36/65/20
f 36/65/21 35/64/21 37/66/21 38/67/21
f 38/67/22 37/66/22 39/68/22 40/69/22
f 33/70/23 32/71/23 41/72/23 39/73/23 37/74/23 35/75/23
f 40/69/24 39/68/24 41/76/24 42/77/24
f 42/77/25 41/76/25 32/78/25 31/79/25
f 31/80/26 34/81/26 36/82/26 38/83/26 40/84/26 42/85/26
o Cylinder.003
v 0.000004 0.013494 11.653646
v 0.000001 0.013494 3.440644
v -0.433012 -0.236506 3.440644
v -0.433009 -0.236506 11.653646
v -0.433012 -0.736506 3.440644
v -0.433009 -0.736506 11.653646
v 0.000001 -0.986506 3.440644
v 0.000004 -0.986506 11.653646
v 0.433014 -0.736506 3.440644
v 0.433017 -0.736506 11.653646
v 0.433014 -0.236506 3.440644
v 0.433017 -0.236506 11.653646
vt 1.000000 0.500000
vt 1.000000 1.000000
vt 0.833333 1.000000
vt 0.833333 0.500000
vt 0.666667 1.000000
vt 0.666667 0.500000
vt 0.500000 1.000000
vt 0.500000 0.500000
vt 0.333333 1.000000
vt 0.333333 0.500000
vt 0.457846 0.370000
vt 0.250000 0.490000
vt 0.042154 0.370000
vt 0.042154 0.130000
vt 0.250000 0.010000
vt 0.457846 0.130000
vt 0.166667 1.000000
vt 0.166667 0.500000
vt -0.000000 1.000000
vt -0.000000 0.500000
vt 0.750000 0.490000
vt 0.957846 0.370000
vt 0.957846 0.130000
vt 0.750000 0.010000
vt 0.542154 0.130000
vt 0.542154 0.370000
vn -0.5000 0.8660 0.0000
vn -1.0000 0.0000 0.0000
vn -0.5000 -0.8660 0.0000
vn 0.5000 -0.8660 -0.0000
vn 0.0000 0.0000 -1.0000
vn 1.0000 0.0000 -0.0000
vn 0.5000 0.8660 -0.0000
vn -0.0000 0.0000 1.0000
usemtl ShotgunBlack
s 1
f 43/86/27 44/87/27 45/88/27 46/89/27
f 46/89/28 45/88/28 47/90/28 48/91/28
f 48/91/29 47/90/29 49/92/29 50/93/29
f 50/93/30 49/92/30 51/94/30 52/95/30
f 45/96/31 44/97/31 53/98/31 51/99/31 49/100/31 47/101/31
f 52/95/32 51/94/32 53/102/32 54/103/32
f 54/103/33 53/102/33 44/104/33 43/105/33
f 43/106/34 46/107/34 48/108/34 50/109/34 52/110/34 54/111/34
o Cube_Cube.001
v -0.239549 0.706690 -2.924335
v -0.239549 1.079643 -2.924335
v -0.239549 1.079642 -2.262660
v -0.239549 0.706690 -2.262660
v -0.350669 1.079642 -2.262660
v -0.350669 0.706690 -2.262660
v -0.350669 1.079643 -2.924335
v -0.350669 0.706690 -2.924335
vt 0.375000 0.000000
vt 0.625000 0.000000
vt 0.625000 0.250000
vt 0.375000 0.250000
vt 0.625000 0.500000
vt 0.375000 0.500000
vt 0.625000 0.750000
vt 0.375000 0.750000
vt 0.625000 1.000000
vt 0.375000 1.000000
vt 0.125000 0.500000
vt 0.125000 0.750000
vt 0.875000 0.500000
vt 0.875000 0.750000
vn 1.0000 0.0000 0.0000
vn 0.0000 -0.0000 1.0000
vn -1.0000 0.0000 0.0000
vn 0.0000 0.0000 -1.0000
vn 0.0000 -1.0000 -0.0000
vn 0.0000 1.0000 0.0000
usemtl ShotgunBlack
s 1
f 55/112/35 56/113/35 57/114/35 58/115/35
f 58/115/36 57/114/36 59/116/36 60/117/36
f 60/117/37 59/116/37 61/118/37 62/119/37
f 62/119/38 61/118/38 56/120/38 55/121/38
f 58/122/39 60/117/39 62/119/39 55/123/39
f 59/116/40 57/124/40 56/125/40 61/118/40
o Cube.001_Cube.002
v 0.350667 0.706690 -2.924335
v 0.350667 1.079643 -2.924335
v 0.350667 1.079642 -2.262660
v 0.350667 0.706690 -2.262660
v 0.239547 1.079642 -2.262660
v 0.239547 0.706690 -2.262660
v 0.239547 1.079643 -2.924335
v 0.239547 0.706690 -2.924335
vt 0.375000 0.000000
vt 0.625000 0.000000
vt 0.625000 0.250000
vt 0.375000 0.250000
vt 0.625000 0.500000
vt 0.375000 0.500000
vt 0.625000 0.750000
vt 0.375000 0.750000
vt 0.625000 1.000000
vt 0.375000 1.000000
vt 0.125000 0.500000
vt 0.125000 0.750000
vt 0.875000 0.500000
vt 0.875000 0.750000
vn 1.0000 -0.0000 0.0000
vn 0.0000 -0.0000 1.0000
vn -1.0000 -0.0000 0.0000
vn 0.0000 0.0000 -1.0000
vn 0.0000 -1.0000 -0.0000
vn 0.0000 1.0000 0.0000
usemtl ShotgunBlack
s 1
f 63/126/41 64/127/41 65/128/41 66/129/41
f 66/129/42 65/128/42 67/130/42 68/131/42
f 68/131/43 67/130/43 69/132/43 70/133/43
f 70/133/44 69/132/44 64/134/44 63/135/44
f 66/136/45 68/131/45 70/133/45 63/137/45
f 67/130/46 65/138/46 64/139/46 69/132/46
o Cube.002_Cube.003
v 0.055564 0.751770 12.399519
v 0.055564 1.043809 12.399519
v 0.055564 1.043809 13.061193
v 0.055564 0.751770 13.061193
v -0.055556 1.043809 13.061193
v -0.055556 0.751770 13.061193
v -0.055556 1.043809 12.399519
v -0.055556 0.751770 12.399519
vt 0.375000 0.000000
vt 0.625000 0.000000
vt 0.625000 0.250000
vt 0.375000 0.250000
vt 0.625000 0.500000
vt 0.375000 0.500000
vt 0.625000 0.750000
vt 0.375000 0.750000
vt 0.625000 1.000000
vt 0.375000 1.000000
vt 0.125000 0.500000
vt 0.125000 0.750000
vt 0.875000 0.500000
vt 0.875000 0.750000
vn 1.0000 0.0000 0.0000
vn 0.0000 0.0000 1.0000
vn -1.0000 0.0000 0.0000
vn 0.0000 0.0000 -1.0000
vn 0.0000 -1.0000 -0.0000
vn 0.0000 1.0000 0.0000
usemtl ShotgunBlack
s 1
f 71/140/47 72/141/47 73/142/47 74/143/47
f 74/143/48 73/142/48 75/144/48 76/145/48
f 76/145/49 75/144/49 77/146/49 78/147/49
f 78/147/50 77/146/50 72/148/50 71/149/50
f 74/150/51 76/145/51 78/147/51 71/151/51
f 75/144/52 73/152/52 72/153/52 77/146/52
