# Blender v3.0.0 OBJ File: ''
# www.blender.org
mtllib sniper.mtl
o Cylinder.004
v 0.000001 0.845750 7.833315
v -0.000001 0.845754 -3.500997
v -0.730286 0.500002 -3.500997
v -0.730284 0.499998 7.833315
v -0.730286 -0.499998 -3.500996
v -0.730284 -0.500002 7.833315
v -0.000001 -0.999998 -3.500997
v 0.000001 -1.000002 7.833315
v 0.730284 -0.499998 -3.500997
v 0.730286 -0.500002 7.833315
v 0.730284 0.500002 -3.500997
v 0.730286 0.499998 7.833314
vt 1.000000 0.500000
vt 1.000000 1.000000
vt 0.833333 1.000000
vt 0.833333 0.500000
vt 0.666667 1.000000
vt 0.666667 0.500000
vt 0.500000 1.000000
vt 0.500000 0.500000
vt 0.333333 1.000000
vt 0.333333 0.500000
vt 0.457846 0.370000
vt 0.250000 0.490000
vt 0.042154 0.370000
vt 0.042154 0.130000
vt 0.250000 0.010000
vt 0.457846 0.130000
vt 0.166667 1.000000
vt 0.166667 0.500000
vt -0.000000 1.000000
vt -0.000000 0.500000
vt 0.750000 0.490000
vt 0.957846 0.370000
vt 0.957846 0.130000
vt 0.750000 0.010000
vt 0.542154 0.130000
vt 0.542154 0.370000
vn -0.4279 0.9038 0.0000
vn -1.0000 0.0000 0.0000
vn -0.5649 -0.8251 -0.0000
vn 0.5649 -0.8251 -0.0000
vn -0.0000 0.0000 -1.0000
vn 1.0000 0.0000 -0.0000
vn 0.4279 0.9038 0.0000
vn 0.0000 0.0000 1.0000
usemtl SniperGreen
s 1
f 1/1/1 2/2/1 3/3/1 4/4/1
f 4/4/2 3/3/2 5/5/2 6/6/2
f 6/6/3 5/5/3 7/7/3 8/8/3
f 8/8/4 7/7/4 9/9/4 10/10/4
f 3/11/5 2/12/5 11/13/5 9/14/5 7/15/5 5/16/5
f 10/10/6 9/9/6 11/17/6 12/18/6
f 12/18/7 11/17/7 2/19/7 1/20/7
f 1/21/8 4/22/8 6/23/8 8/24/8 10/25/8 12/26/8
o Cylinder.005
v -0.115630 0.697952 1.711766
v -0.115630 0.932268 1.711766
v -0.115630 0.932268 1.184542
v -0.115630 0.697952 1.184542
v 0.115630 0.932268 1.184542
v 0.115630 0.697952 1.184542
v 0.115630 0.932268 1.711766
v 0.115630 0.697952 1.711766
v -0.000002 0.102945 -6.894369
v -0.000003 0.118324 -10.281514
v -0.730288 -0.381676 -10.281514
v -0.730287 -0.354555 -6.894369
v -0.730288 -2.453428 -10.281513
v -0.730287 -2.358800 -6.894372
v -0.000003 -2.953428 -10.281516
v -0.000002 -2.911740 -6.894372
v 0.730283 -2.453428 -10.281514
v 0.730283 -2.358800 -6.894372
v 0.730283 -0.381676 -10.281514
v 0.730283 -0.354555 -6.894369
v -0.000001 0.851879 -3.507224
v -0.730286 0.500002 -3.507224
v -0.730286 -0.499998 -3.507224
v -0.000001 -0.999998 -3.507224
v 0.730284 -0.499998 -3.507224
v 0.730284 0.500002 -3.507225
vt 0.375000 0.000000
vt 0.625000 0.000000
vt 0.625000 0.250000
vt 0.375000 0.250000
vt 0.625000 0.500000
vt 0.375000 0.500000
vt 0.625000 0.750000
vt 0.375000 0.750000
vt 0.625000 1.000000
vt 0.375000 1.000000
vt 0.125000 0.500000
vt 0.125000 0.750000
vt 0.875000 0.500000
vt 0.875000 0.750000
vt 1.000000 0.750000
vt 1.000000 1.000000
vt 0.833333 1.000000
vt 0.833333 0.750000
vt 0.666667 1.000000
vt 0.666667 0.750000
vt 0.500000 1.000000
vt 0.500000 0.750000
vt 0.333333 1.000000
vt 0.333333 0.750000
vt 0.457846 0.370000
vt 0.250000 0.490000
vt 0.042154 0.370000
vt 0.042154 0.130000
vt 0.250000 0.010000
vt 0.457846 0.130000
vt 0.166667 1.000000
vt 0.166667 0.750000
vt -0.000000 1.000000
vt -0.000000 0.750000
vt 0.750000 0.490000
vt 0.957846 0.370000
vt 0.957846 0.130000
vt 0.750000 0.010000
vt 0.542154 0.130000
vt 0.542154 0.370000
vt 0.166667 0.500000
vt -0.000000 0.500000
vt 0.333333 0.500000
vt 0.500000 0.500000
vt 0.666667 0.500000
vt 0.833333 0.500000
vt 1.000000 0.500000
vn -1.0000 0.0000 0.0000
vn 0.0000 0.0000 -1.0000
vn 1.0000 0.0000 0.0000
vn 0.0000 0.0000 1.0000
vn 0.0000 -1.0000 -0.0000
vn 0.0000 1.0000 0.0000
vn -0.5483 0.8363 -0.0014
vn -0.5682 -0.7881 0.2368
vn -0.5847 -0.8111 0.0163
vn -0.5734 -0.7954 0.1965
vn 0.5734 -0.7954 0.1965
vn 0.5847 -0.8111 0.0163
vn 0.5682 -0.7881 0.2368
vn 0.5483 0.8363 -0.0014
vn 0.4746 0.8565 -0.2027
vn 0.5330 -0.7393 0.4115
vn -0.5330 -0.7393 0.4115
vn -0.4746 0.8565 -0.2027
usemtl SniperGreen
s off
f 13/27/9 14/28/9 15/29/9 16/30/9
f 16/30/10 15/29/10 17/31/10 18/32/10
f 18/32/11 17/31/11 19/33/11 20/34/11
f 20/34/12 19/33/12 14/35/12 13/36/12
f 16/37/13 18/32/13 20/34/13 13/38/13
f 17/31/14 15/39/14 14/40/14 19/33/14
s 1
f 21/41/15 22/42/15 23/43/15 24/44/15
f 24/44/9 23/43/9 25/45/9 26/46/9
f 26/46/16 25/45/17 27/47/17 28/48/18
f 28/48/19 27/47/20 29/49/20 30/50/21
f 23/51/10 22/52/10 31/53/10 29/54/10 27/55/10 25/56/10
f 30/50/11 29/49/11 31/57/11 32/58/11
f 32/58/22 31/57/22 22/59/22 21/60/22
f 33/61/12 34/62/12 35/63/12 36/64/12 37/65/12 38/66/12
f 38/67/23 32/58/23 21/60/23 33/68/23
f 37/69/11 30/50/11 32/58/11 38/67/11
f 36/70/24 28/48/19 30/50/21 37/69/24
f 35/71/25 26/46/16 28/48/18 36/70/25
f 34/72/9 24/44/9 26/46/9 35/71/9
f 33/73/26 21/41/26 24/44/26 34/72/26
o Cylinder.006
v -0.157759 0.755604 15.594308
v -0.157762 0.755607 7.813766
v -0.315525 0.503561 7.813766
v -0.315522 0.503558 15.594308
v -0.157762 0.251515 7.813766
v -0.157759 0.251512 15.594308
v 0.157764 0.251515 7.813766
v 0.157767 0.251512 15.594308
v 0.315527 0.503561 7.813766
v 0.315530 0.503558 15.594308
v 0.157764 0.755607 7.813766
v 0.157767 0.755604 15.594308
vt 1.000000 0.500000
vt 1.000000 1.000000
vt 0.833333 1.000000
vt 0.833333 0.500000
vt 0.666667 1.000000
vt 0.666667 0.500000
vt 0.500000 1.000000
vt 0.500000 0.500000
vt 0.333333 1.000000
vt 0.333333 0.500000
vt 0.457846 0.370000
vt 0.250000 0.490000
vt 0.042154 0.370000
vt 0.042154 0.130000
vt 0.250000 0.010000
vt 0.457846 0.130000
vt 0.166667 1.000000
vt 0.166667 0.500000
vt -0.000000 1.000000
vt -0.000000 0.500000
vt 0.750000 0.490000
vt 0.957846 0.370000
vt 0.957846 0.130000
vt 0.750000 0.010000
vt 0.542154 0.130000
vt 0.542154 0.370000
vn -0.8476 0.5306 0.0000
vn -0.8476 -0.5306 0.0000
vn 0.0000 -1.0000 -0.0000
vn 0.8476 -0.5306 -0.0000
vn 0.0000 0.0000 -1.0000
vn 0.8476 0.5306 -0.0000
vn 0.0000 1.0000 0.0000
vn 0.0000 0.0000 1.0000
usemtl SniperBlack
s 1
f 39/74/27 40/75/27 41/76/27 42/77/27
f 42/77/28 41/76/28 43/78/28 44/79/28
f 44/79/29 43/78/29 45/80/29 46/81/29
f 46/81/30 45/80/30 47/82/30 48/83/30
f 41/84/31 40/85/31 49/86/31 47/87/31 45/88/31 43/89/31
f 48/83/32 47/82/32 49/90/32 50/91/32
f 50/91/33 49/90/33 40/92/33 39/93/33
f 39/94/34 42/95/34 44/96/34 46/97/34 48/98/34 50/99/34
o Cube_Cube.005
v -0.429494 -2.551403 1.000000
v -0.429494 -0.551403 1.000000
v -0.429494 -0.551403 -1.000000
v -0.429494 -2.551403 -1.000000
v 0.429494 -0.551403 -1.000000
v 0.429494 -2.551403 -1.000000
v 0.429494 -0.551403 1.000000
v 0.429494 -2.551403 1.000000
vt 0.375000 0.000000
vt 0.625000 0.000000
vt 0.625000 0.250000
vt 0.375000 0.250000
vt 0.625000 0.500000
vt 0.375000 0.500000
vt 0.625000 0.750000
vt 0.375000 0.750000
vt 0.625000 1.000000
vt 0.375000 1.000000
vt 0.125000 0.500000
vt 0.125000 0.750000
vt 0.875000 0.500000
vt 0.875000 0.750000
vn -1.0000 0.0000 0.0000
vn 0.0000 0.0000 -1.0000
vn 1.0000 0.0000 0.0000
vn 0.0000 -0.0000 1.0000
vn 0.0000 -1.0000 -0.0000
vn 0.0000 1.0000 0.0000
usemtl SniperGrey
s off
f 51/100/35 52/101/35 53/102/35 54/103/35
f 54/103/36 53/102/36 55/104/36 56/105/36
f 56/105/37 55/104/37 57/106/37 58/107/37
f 58/107/38 57/106/38 52/108/38 51/109/38
f 54/110/39 56/105/39 58/107/39 51/111/39
f 55/104/40 53/112/40 52/113/40 57/106/40
o Cylinder.001_Cylinder.008
v -0.165504 -0.175060 12.109251
v -0.165505 -0.175057 7.736930
v -0.295211 -0.250863 7.736930
v -0.295210 -0.250865 12.109251
v -0.296007 -0.401093 7.736930
v -0.296006 -0.401095 12.109251
v -0.167098 -0.475519 7.736930
v -0.167097 -0.475521 12.109251
v -0.037392 -0.399714 7.736930
v -0.037391 -0.399716 12.109251
v -0.036596 -0.249483 7.736930
v -0.036595 -0.249486 12.109251
vt 1.000000 0.500000
vt 1.000000 1.000000
vt 0.833333 1.000000
vt 0.833333 0.500000
vt 0.666667 1.000000
vt 0.666667 0.500000
vt 0.500000 1.000000
vt 0.500000 0.500000
vt 0.333333 1.000000
vt 0.333333 0.500000
vt 0.457846 0.370000
vt 0.250000 0.490000
vt 0.042154 0.370000
vt 0.042154 0.130000
vt 0.250000 0.010000
vt 0.457846 0.130000
vt 0.166667 1.000000
vt 0.166667 0.500000
vt -0.000000 1.000000
vt -0.000000 0.500000
vt 0.750000 0.490000
vt 0.957846 0.370000
vt 0.957846 0.130000
vt 0.750000 0.010000
vt 0.542154 0.130000
vt 0.542154 0.370000
vn -0.5046 0.8634 0.0000
vn -1.0000 0.0053 0.0000
vn -0.5000 -0.8660 -0.0000
vn 0.5046 -0.8634 -0.0000
vn -0.0000 0.0000 -1.0000
vn 1.0000 -0.0053 -0.0000
vn 0.5000 0.8660 0.0000
vn 0.0000 0.0000 1.0000
usemtl SniperGrey
s 1
f 59/114/41 60/115/41 61/116/41 62/117/41
f 62/117/42 61/116/42 63/118/42 64/119/42
f 64/119/43 63/118/43 65/120/43 66/121/43
f 66/121/44 65/120/44 67/122/44 68/123/44
f 61/124/45 60/125/45 69/126/45 67/127/45 65/128/45 63/129/45
f 68/123/46 67/122/46 69/130/46 70/131/46
f 70/131/47 69/130/47 60/132/47 59/133/47
f 59/134/48 62/135/48 64/136/48 66/137/48 68/138/48 70/139/48
o Cylinder.002_Cylinder.009
v 0.416448 -0.175060 12.109251
v 0.416447 -0.175057 7.736930
v 0.286741 -0.250863 7.736930
v 0.286742 -0.250865 12.109251
v 0.285945 -0.401093 7.736930
v 0.285946 -0.401095 12.109251
v 0.414854 -0.475519 7.736930
v 0.414855 -0.475521 12.109251
v 0.544560 -0.399714 7.736930
v 0.544561 -0.399716 12.109251
v 0.545356 -0.249483 7.736930
v 0.545357 -0.249486 12.109251
vt 1.000000 0.500000
vt 1.000000 1.000000
vt 0.833333 1.000000
vt 0.833333 0.500000
vt 0.666667 1.000000
vt 0.666667 0.500000
vt 0.500000 1.000000
vt 0.500000 0.500000
vt 0.333333 1.000000
vt 0.333333 0.500000
vt 0.457846 0.370000
vt 0.250000 0.490000
vt 0.042154 0.370000
vt 0.042154 0.130000
vt 0.250000 0.010000
vt 0.457846 0.130000
vt 0.166667 1.000000
vt 0.166667 0.500000
vt -0.000000 1.000000
vt -0.000000 0.500000
vt 0.750000 0.490000
vt 0.957846 0.370000
vt 0.957846 0.130000
vt 0.750000 0.010000
vt 0.542154 0.130000
vt 0.542154 0.370000
vn -0.5046 0.8634 0.0000
vn -1.0000 0.0053 0.0000
vn -0.5000 -0.8660 -0.0000
vn 0.5046 -0.8634 -0.0000
vn -0.0000 0.0000 -1.0000
vn 1.0000 -0.0053 -0.0000
vn 0.5000 0.8660 0.0000
vn 0.0000 0.0000 1.0000
usemtl SniperGrey
s 1
f 71/140/49 72/141/49 73/142/49 74/143/49
f 74/143/50 73/142/50 75/144/50 76/145/50
f 76/145/51 75/144/51 77/146/51 78/147/51
f 78/147/52 77/146/52 79/148/52 80/149/52
f 73/150/53 72/151/53 81/152/53 79/153/53 77/154/53 75/155/53
f 80/149/54 79/148/54 81/156/54 82/157/54
f 82/157/55 81/156/55 72/158/55 71/159/55
f 71/160/56 74/161/56 76/162/56 78/163/56 80/164/56 82/165/56
o Torus
v 0.875000 1.672902 -2.760310
v 0.707890 2.187214 -2.760310
v 0.625164 2.119558 1.756648
v 0.772745 1.672902 1.756648
v 0.424734 1.981489 -2.760310
v 0.525000 1.672902 -2.760310
v 0.566312 2.084352 -3.010310
v 0.700000 1.672902 -3.010310
v 0.270390 2.505077 -2.760309
v 0.238792 2.395606 1.756648
v 0.162234 2.172208 -2.760310
v 0.216312 2.338642 -3.010309
v -0.270390 2.505077 -2.760309
v -0.238791 2.395606 1.756648
v -0.162234 2.172208 -2.760310
v -0.216312 2.338642 -3.010309
v -0.707890 2.187214 -2.760310
v -0.625164 2.119557 1.756648
v -0.424734 1.981489 -2.760310
v -0.566312 2.084352 -3.010310
v -0.875000 1.672902 -2.760310
v -0.772745 1.672902 1.756648
v -0.525000 1.672902 -2.760310
v -0.700000 1.672902 -3.010310
v -0.707890 1.158590 -2.760310
v -0.625164 1.226247 1.756648
v -0.424734 1.364316 -2.760310
v -0.566312 1.261454 -3.010310
v -0.270390 0.840728 -2.760310
v -0.238791 0.950199 1.756648
v -0.162234 1.173599 -2.760310
v -0.216312 1.007164 -3.010310
v 0.270390 0.840728 -2.760310
v 0.238792 0.950199 1.756648
v 0.162234 1.173599 -2.760310
v 0.216312 1.007164 -3.010310
v 0.707890 1.158590 -2.760310
v 0.625164 1.226246 1.756648
v 0.424734 1.364316 -2.760310
v 0.566312 1.261452 -3.010310
vt 0.600000 0.500000
vt 0.700000 0.500000
vt 0.700000 0.750000
vt 0.600000 0.750000
vt 0.700000 1.000000
vt 0.600000 1.000000
vt 0.600000 0.000000
vt 0.700000 0.000000
vt 0.700000 0.250000
vt 0.600000 0.250000
vt 0.800000 0.500000
vt 0.800000 0.750000
vt 0.800000 1.000000
vt 0.800000 0.000000
vt 0.800000 0.250000
vt 0.900000 0.500000
vt 0.900000 0.750000
vt 0.900000 1.000000
vt 0.900000 0.000000
vt 0.900000 0.250000
vt 1.000000 0.500000
vt 1.000000 0.750000
vt 1.000000 1.000000
vt 1.000000 0.000000
vt 1.000000 0.250000
vt -0.000000 0.500000
vt 0.100000 0.500000
vt 0.100000 0.750000
vt -0.000000 0.750000
vt 0.100000 1.000000
vt -0.000000 1.000000
vt -0.000000 0.000000
vt 0.100000 0.000000
vt 0.100000 0.250000
vt -0.000000 0.250000
vt 0.200000 0.500000
vt 0.200000 0.750000
vt 0.200000 1.000000
vt 0.200000 0.000000
vt 0.200000 0.250000
vt 0.300000 0.500000
vt 0.300000 0.750000
vt 0.300000 1.000000
vt 0.300000 0.000000
vt 0.300000 0.250000
vt 0.400000 0.500000
vt 0.400000 0.750000
vt 0.400000 1.000000
vt 0.400000 0.000000
vt 0.400000 0.250000
vt 0.500000 0.500000
vt 0.500000 0.750000
vt 0.500000 1.000000
vt 0.500000 0.000000
vt 0.500000 0.250000
vn 0.9501 0.3111 0.0218
vn -0.9489 -0.3114 0.0518
vn -0.7917 -0.2572 -0.5542
vn 0.7917 0.2572 -0.5542
vn 0.5846 0.8110 0.0233
vn -0.5832 -0.8108 0.0503
vn -0.4893 -0.6734 -0.5542
vn 0.4893 0.6734 -0.5542
vn 0.0000 0.9997 0.0242
vn 0.0000 -0.9988 0.0494
vn 0.0000 -0.8324 -0.5542
vn 0.0000 0.8324 -0.5542
vn -0.5846 0.8110 0.0233
vn 0.5832 -0.8108 0.0503
vn 0.4893 -0.6734 -0.5542
vn -0.4893 0.6734 -0.5542
vn -0.9501 0.3111 0.0218
vn 0.9489 -0.3114 0.0518
vn 0.7917 -0.2572 -0.5542
vn -0.7917 0.2572 -0.5542
vn -0.9501 -0.3111 0.0218
vn 0.9489 0.3114 0.0518
vn -0.5846 -0.8110 0.0233
vn 0.5832 0.8108 0.0503
vn 0.0000 -0.9997 0.0242
vn 0.0000 0.9988 0.0494
vn 0.5846 -0.8110 0.0233
vn -0.5832 0.8108 0.0503
vn 0.9501 -0.3111 0.0218
vn -0.9489 0.3114 0.0518
usemtl SniperGrey
s off
f 83/166/57 84/167/57 85/168/57 86/169/57
f 86/169/58 85/168/58 87/170/58 88/171/58
f 88/172/59 87/173/59 89/174/59 90/175/59
f 90/175/60 89/174/60 84/167/60 83/166/60
f 84/167/61 91/176/61 92/177/61 85/168/61
f 85/168/62 92/177/62 93/178/62 87/170/62
f 87/173/63 93/179/63 94/180/63 89/174/63
f 89/174/64 94/180/64 91/176/64 84/167/64
f 91/176/65 95/181/65 96/182/65 92/177/65
f 92/177/66 96/182/66 97/183/66 93/178/66
f 93/179/67 97/184/67 98/185/67 94/180/67
f 94/180/68 98/185/68 95/181/68 91/176/68
f 95/181/69 99/186/69 100/187/69 96/182/69
f 96/182/70 100/187/70 101/188/70 97/183/70
f 97/184/71 101/189/71 102/190/71 98/185/71
f 98/185/72 102/190/72 99/186/72 95/181/72
f 99/191/73 103/192/73 104/193/73 100/194/73
f 100/194/74 104/193/74 105/195/74 101/196/74
f 101/197/75 105/198/75 106/199/75 102/200/75
f 102/200/76 106/199/76 103/192/76 99/191/76
f 103/192/77 107/201/77 108/202/77 104/193/77
f 104/193/78 108/202/78 109/203/78 105/195/78
f 105/198/60 109/204/60 110/205/60 106/199/60
f 106/199/59 110/205/59 107/201/59 103/192/59
f 107/201/79 111/206/79 112/207/79 108/202/79
f 108/202/80 112/207/80 113/208/80 109/203/80
f 109/204/64 113/209/64 114/210/64 110/205/64
f 110/205/63 114/210/63 111/206/63 107/201/63
f 111/206/81 115/211/81 116/212/81 112/207/81
f 112/207/82 116/212/82 117/213/82 113/208/82
f 113/209/68 117/214/68 118/215/68 114/210/68
f 114/210/67 118/215/67 115/211/67 111/206/67
f 115/211/83 119/216/83 120/217/83 116/212/83
f 116/212/84 120/217/84 121/218/84 117/213/84
f 117/214/72 121/219/72 122/220/72 118/215/72
f 118/215/71 122/220/71 119/216/71 115/211/71
f 119/216/85 83/166/85 86/169/85 120/217/85
f 120/217/86 86/169/86 88/171/86 121/218/86
f 121/219/76 88/172/76 90/175/76 122/220/76
f 122/220/75 90/175/75 83/166/75 119/216/75
o Plane_Plane.001
v -0.005000 2.305266 -2.634588
v -0.005000 1.044789 -2.634588
v 0.005000 1.044789 -2.634588
v 0.005000 2.305266 -2.634588
vt 0.000000 0.000000
vt 1.000000 0.000000
vt 1.000000 1.000000
vt 0.000000 1.000000
vn 0.0000 -0.0000 1.0000
usemtl SniperBlack
s off
f 123/221/87 124/222/87 125/223/87 126/224/87
o Plane.001_Plane.002
v -0.630238 1.670028 -2.634588
v 0.630238 1.670028 -2.634588
v 0.630238 1.680028 -2.634588
v -0.630238 1.680028 -2.634588
vt 0.000000 0.000000
vt 1.000000 0.000000
vt 1.000000 1.000000
vt 0.000000 1.000000
vn 0.0000 0.0000 1.0000
usemtl SniperBlack
s off
f 127/225/88 128/226/88 129/227/88 130/228/88
o Plane
v -0.752177 0.365557 1025.871094
v -0.752177 -0.019986 1025.871094
v -0.752177 0.365557 4.128967
v -0.752177 -0.019986 4.128967
vt 0.000000 0.000000
vt 1.000000 0.000000
vt 1.000000 1.000000
vt 0.000000 1.000000
vn 1.0000 0.0000 0.0000
usemtl SniperLaser
s off
f 131/229/89 132/230/89 134/231/89 133/232/89
